<svg width="34" height="34" viewBox="0 0 34 34" fill="none" xmlns="http://www.w3.org/2000/svg">
<path d="M16.9994 1.41602C13.9173 1.41602 10.9044 2.32996 8.34172 4.04228C5.77905 5.7546 3.7817 8.18838 2.60223 11.0359C1.42277 13.8833 1.11417 17.0166 1.71545 20.0395C2.31674 23.0624 3.80091 25.8391 5.98028 28.0184C8.15964 30.1978 10.9363 31.682 13.9592 32.2833C16.9821 32.8845 20.1154 32.5759 22.9628 31.3965C25.8103 30.217 28.2441 28.2197 29.9564 25.657C31.6687 23.0943 32.5827 20.0814 32.5827 16.9993C32.5778 12.8679 30.9344 8.90704 28.0131 5.98565C25.0917 3.06427 21.1308 1.42089 16.9994 1.41602ZM24.0827 18.416H18.416V24.0827C18.416 24.4584 18.2668 24.8187 18.0011 25.0844C17.7354 25.3501 17.3751 25.4993 16.9994 25.4993C16.6236 25.4993 16.2633 25.3501 15.9976 25.0844C15.7319 24.8187 15.5827 24.4584 15.5827 24.0827V18.416H9.91602C9.5403 18.416 9.17997 18.2668 8.91429 18.0011C8.64861 17.7354 8.49936 17.3751 8.49936 16.9993C8.49936 16.6236 8.64861 16.2633 8.91429 15.9976C9.17997 15.7319 9.5403 15.5827 9.91602 15.5827H15.5827V9.91602C15.5827 9.54029 15.7319 9.17996 15.9976 8.91428C16.2633 8.6486 16.6236 8.49935 16.9994 8.49935C17.3751 8.49935 17.7354 8.6486 18.0011 8.91428C18.2668 9.17996 18.416 9.54029 18.416 9.91602V15.5827H24.0827C24.4584 15.5827 24.8188 15.7319 25.0844 15.9976C25.3501 16.2633 25.4994 16.6236 25.4994 16.9993C25.4994 17.3751 25.3501 17.7354 25.0844 18.0011C24.8188 18.2668 24.4584 18.416 24.0827 18.416Z" fill="#999999"/>
</svg>
