<svg width="101" height="100" viewBox="0 0 101 100" fill="none" xmlns="http://www.w3.org/2000/svg">
<g clip-path="url(#clip0_56_2751)">
<path d="M93.6641 0H57.3359C53.5666 0 50.5 3.0666 50.5 6.83594V48.7025C51.9513 49.1252 53.3768 49.632 54.7691 50.2203C59.4213 52.1881 63.5982 55.0037 67.1838 58.5893C70.7693 62.1748 73.585 66.3518 75.5527 71.0039C77.1201 74.7051 78.1013 78.6278 78.4611 82.6311C81.9092 83.4426 84.4844 86.5424 84.4844 90.2344V92.1875C84.4844 95.0908 83.5719 97.7836 82.0227 100H93.6641C97.4334 100 100.5 96.9334 100.5 93.1641V6.83594C100.5 3.0666 97.4334 0 93.6641 0ZM86.5352 32.0312C88.1531 32.0312 89.4648 33.343 89.4648 34.9609C89.4648 36.5789 88.1531 37.8906 86.5352 37.8906H64.4648C62.8469 37.8906 61.5352 36.5789 61.5352 34.9609C61.5352 33.343 62.8469 32.0312 64.4648 32.0312H86.5352ZM68.957 17.3828C68.957 15.7648 70.2687 14.4531 71.8867 14.4531H79.1133C80.7313 14.4531 82.043 15.7648 82.043 17.3828C82.043 19.0008 80.7313 20.3125 79.1133 20.3125H71.8867C70.2687 20.3125 68.957 19.0008 68.957 17.3828ZM64.4648 49.6094C62.8469 49.6094 61.5352 48.2977 61.5352 46.6797C61.5352 45.0617 62.8469 43.75 64.4648 43.75H86.5352C88.1531 43.75 89.4648 45.0617 89.4648 46.6797C89.4648 48.2977 88.1531 49.6094 86.5352 49.6094H64.4648Z" fill="#FFBB15"/>
<path d="M36.6328 53.1376C20.9207 54.5115 8.34766 66.8271 6.57578 82.4218H72.5492C70.7773 66.8271 58.2043 54.5115 42.4922 53.1376V46.8386H44.6787C46.2967 46.8386 47.6084 45.5269 47.6084 43.9089C47.6084 42.291 46.2967 40.9792 44.6787 40.9792H34.4461C32.8281 40.9792 31.5164 42.291 31.5164 43.9089C31.5164 45.5269 32.8281 46.8386 34.4461 46.8386H36.6328V47.2558V53.1376ZM27.6176 68.7646C25.3898 70.3324 23.5338 72.4269 22.2506 74.822C21.7225 75.8078 20.7107 76.3685 19.6658 76.3685C19.1986 76.3685 18.7252 76.2566 18.2846 76.0207C16.8584 75.2564 16.3219 73.4808 17.0859 72.0546C18.7986 68.8584 21.2744 66.0638 24.2459 63.9728C25.5684 63.0416 27.3965 63.3593 28.3277 64.6828C29.2586 66.0058 28.9408 67.8334 27.6176 68.7646ZM37.6094 65.6039C36.9727 65.6039 36.3312 65.6386 35.7031 65.7072C35.5949 65.7191 35.4875 65.7248 35.3814 65.7248C33.9061 65.7248 32.6365 64.6132 32.4727 63.1128C32.2971 61.5044 33.4584 60.058 35.0668 59.8824C35.9055 59.7908 36.7609 59.7443 37.6094 59.7443C39.2273 59.7443 40.5391 61.056 40.5391 62.674C40.5391 64.2919 39.2273 65.6039 37.6094 65.6039ZM78.625 92.1875V90.2343C78.625 89.1556 77.7506 88.2812 76.6719 88.2812H2.45312C1.37441 88.2812 0.5 89.1556 0.5 90.2343V92.1875C0.5 96.5021 3.99785 100 8.3125 100H70.8125C75.1272 100 78.625 96.5021 78.625 92.1875Z" fill="#FFBB15"/>
</g>
<defs>
<clipPath id="clip0_56_2751">
<rect width="100" height="100" fill="white" transform="translate(0.5)"/>
</clipPath>
</defs>
</svg>
