<svg width="36" height="34" viewBox="0 0 36 34" fill="none" xmlns="http://www.w3.org/2000/svg">
<path d="M31.9303 0.126953H4.07168C1.82609 0.126953 0 1.95244 0 4.20068V29.8044C0 32.05 1.82609 33.8735 4.07168 33.8735H31.9301C34.1757 33.8735 35.9999 32.05 35.9999 29.8044V4.20068C36 1.95244 34.1758 0.126953 31.9303 0.126953ZM23.2794 6.18536C25.451 6.18536 27.2122 7.94662 27.2122 10.1181C27.2122 12.2896 25.4509 14.0508 23.2794 14.0508C21.1072 14.0508 19.3467 12.2896 19.3467 10.1181C19.3467 7.94662 21.1072 6.18536 23.2794 6.18536ZM30.6533 30.1098H5.9097C4.82354 30.1098 4.33981 29.3239 4.82944 28.3544L11.5787 14.9862C12.0678 14.0168 12.9998 13.9303 13.6598 14.7928L20.4465 23.6619C21.1065 24.5245 22.2602 24.5979 23.0237 23.825L24.684 22.1438C25.4469 21.371 26.571 21.4667 27.1937 22.3561L31.4929 28.4972C32.1144 29.388 31.7395 30.1098 30.6533 30.1098Z" fill="#999999"/>
</svg>
