<svg width="30" height="30" viewBox="0 0 30 30" fill="none" xmlns="http://www.w3.org/2000/svg">
<g clip-path="url(#clip0_744_139)">
<path d="M1.87513 2.04137C-0.482373 4.49012 0.000127003 7.09137 0.000127003 14.9939C0.000127003 21.5564 -1.14487 28.1351 4.84763 29.6839C6.71888 30.1651 23.2989 30.1651 25.1676 29.6814C27.6626 29.0376 29.6926 27.0139 29.9701 23.4851C30.0089 22.9926 30.0089 7.00387 29.9689 6.50137C29.6739 2.74262 27.3601 0.576369 24.3114 0.137619C23.6126 0.036369 23.4726 0.00636903 19.8876 0.00011903C7.17138 0.00636903 4.38388 -0.559881 1.87513 2.04137Z" fill="white"/>
<path d="M14.9978 3.92378C10.459 3.92378 6.14901 3.52003 4.50276 7.74503C3.82276 9.49003 3.92151 11.7563 3.92151 15.0013C3.92151 17.8488 3.83026 20.525 4.50276 22.2563C6.14526 26.4838 10.4903 26.0788 14.9953 26.0788C19.3415 26.0788 23.8228 26.5313 25.489 22.2563C26.1703 20.4938 26.0703 18.2613 26.0703 15.0013C26.0703 10.6738 26.309 7.88003 24.2103 5.78253C22.0853 3.65753 19.2115 3.92378 14.9928 3.92378H14.9978ZM14.0053 5.92003C23.4728 5.90503 24.6778 4.85253 24.0128 19.4738C23.7765 24.645 19.839 24.0775 14.999 24.0775C6.17401 24.0775 5.92026 23.825 5.92026 14.9963C5.92026 6.06503 6.62026 5.92503 14.0053 5.91753V5.92003ZM20.9103 7.75878C20.5578 7.75878 20.2199 7.89877 19.9707 8.14796C19.7215 8.39715 19.5815 8.73512 19.5815 9.08753C19.5815 9.43993 19.7215 9.7779 19.9707 10.0271C20.2199 10.2763 20.5578 10.4163 20.9103 10.4163C21.2627 10.4163 21.6006 10.2763 21.8498 10.0271C22.099 9.7779 22.239 9.43993 22.239 9.08753C22.239 8.73512 22.099 8.39715 21.8498 8.14796C21.6006 7.89877 21.2627 7.75878 20.9103 7.75878ZM14.9978 9.31253C14.2508 9.31261 13.5111 9.45982 12.8211 9.74575C12.131 10.0317 11.504 10.4507 10.9758 10.979C9.90921 12.0458 9.31009 13.4927 9.31026 15.0013C9.31042 16.5099 9.90986 17.9566 10.9767 19.0232C12.0436 20.0898 13.4904 20.6889 14.999 20.6888C16.5076 20.6886 17.9543 20.0892 19.0209 19.0223C20.0875 17.9555 20.6867 16.5086 20.6865 15C20.6863 13.4914 20.0869 12.0447 19.0201 10.9781C17.9532 9.91148 16.5063 9.31236 14.9978 9.31253ZM14.9978 11.3088C19.879 11.3088 19.8853 18.6938 14.9978 18.6938C10.1178 18.6938 10.1103 11.3088 14.9978 11.3088Z" fill="#464646"/>
</g>
<defs>
<clipPath id="clip0_744_139">
<rect width="30" height="30" fill="white"/>
</clipPath>
</defs>
</svg>
