<svg width="31" height="30" viewBox="0 0 31 30" fill="none" xmlns="http://www.w3.org/2000/svg">
<path d="M15.6987 0C10.1848 0 5.69873 4.18704 5.69873 9.33335C5.69873 10.8783 6.11258 12.4101 6.89932 13.7687L15.1519 27.6992C15.2618 27.8849 15.4711 28 15.6987 28C15.9264 28 16.1357 27.8849 16.2456 27.6992L24.5012 13.7641C25.2849 12.4101 25.6988 10.8782 25.6988 9.3333C25.6988 4.18704 21.2127 0 15.6987 0ZM15.6987 14C12.9418 14 10.6988 11.9065 10.6988 9.33335C10.6988 6.7602 12.9418 4.6667 15.6987 4.6667C18.4557 4.6667 20.6987 6.7602 20.6987 9.33335C20.6987 11.9065 18.4557 14 15.6987 14Z" fill="url(#paint0_linear_56_2649)"/>
<defs>
<linearGradient id="paint0_linear_56_2649" x1="15.6987" y1="0" x2="15.6987" y2="28" gradientUnits="userSpaceOnUse">
<stop stop-color="#350202"/>
<stop offset="1" stop-color="#6B0504"/>
</linearGradient>
</defs>
</svg>
