<svg width="70" height="60" viewBox="0 0 70 60" fill="none" xmlns="http://www.w3.org/2000/svg">
<path fill-rule="evenodd" clip-rule="evenodd" d="M35.9495 0.000137329H19.8596C14.6749 0.712502 16.4564 10.5995 19.502 10.5075C25.4017 10.3294 26.8319 10.5075 30.0498 12.8227C32.8155 14.8125 34.113 17.4531 34.3405 19.9464C34.5842 22.6177 34.8053 26.8563 30.9437 30.2756C26.1167 34.5498 20.7534 33.3032 18.2506 32.4127C16.2483 31.7004 16.4628 32.4721 16.8204 32.947C19.1445 34.7279 24.6865 35.0841 27.9045 33.6594C30.4789 32.5196 30.8841 33.1845 30.7649 33.6594C37.4725 32.8241 38.4683 28.294 38.1214 25.9824C37.4414 25.8724 36.9223 25.2847 36.9223 24.5762C36.9223 23.7894 37.5626 23.1515 38.3525 23.1515C39.1424 23.1515 39.7827 23.7894 39.7827 24.5762C39.7827 25.113 39.4847 25.5805 39.0446 25.8234H39.1675V26.5357C39.1675 33.3744 33.4466 35.0841 30.5862 35.0841V37.5774H19.8596C17.893 37.5774 16.8204 37.9336 16.8204 40.6049C16.8204 42.742 18.0122 43.2763 18.6081 43.2763H33.9829C49.7153 44.701 55.0786 35.6184 52.7545 28.6728C50.8952 23.1164 46.1397 21.3711 43.9944 21.193C51.503 17.9873 52.0394 11.0418 49.1789 5.52096C46.8906 1.1043 39.4058 0.000137329 35.9495 0.000137329ZM39.4081 13.7882C39.5836 14.0996 39.4587 14.4906 39.1405 14.6552C38.8224 14.8198 38.4315 14.6957 38.2553 14.3846C36.8369 11.8803 34.8563 9.73643 32.4685 8.12078C32.1719 7.92012 32.0802 7.52179 32.2712 7.21959C32.4622 6.91738 32.8637 6.82579 33.1607 7.02579C35.7431 8.76471 37.8825 11.0804 39.4081 13.7882ZM36.2829 14.9062C36.4763 15.2069 36.3746 15.6044 36.0666 15.7873C35.7586 15.9701 35.3611 15.8689 35.1671 15.5686C33.9222 13.6428 32.3319 11.9618 30.4758 10.6099C30.1864 10.3991 30.1086 9.99786 30.31 9.70243C30.5115 9.40701 30.9159 9.32935 31.2057 9.53949C33.2183 10.9985 34.9401 12.8185 36.2829 14.9062Z" fill="#FFBB15"/>
<ellipse cx="22.8689" cy="22.0839" rx="3.39676" ry="3.38373" fill="#FFBB15"/>
<path d="M0 52.8793H3.79436C4.60195 52.8793 5.23601 53.0389 5.69654 53.358C6.15707 53.6772 6.38734 54.1094 6.38734 54.6545C6.38734 55.0535 6.26052 55.3926 6.0069 55.6718C5.75995 55.9444 5.42289 56.1306 4.99574 56.2303C5.50299 56.3367 5.91012 56.5361 6.21714 56.8287C6.52416 57.1146 6.67767 57.4902 6.67767 57.9556C6.67767 58.5341 6.43739 58.9962 5.95684 59.3419C5.48296 59.6876 4.84223 59.8605 4.03463 59.8605H0V52.8793ZM1.95224 56.8686V58.5241H3.6542C3.96122 58.5241 4.20483 58.451 4.38504 58.3047C4.57192 58.1584 4.66536 57.9556 4.66536 57.6963C4.66536 57.437 4.57192 57.2343 4.38504 57.088C4.20483 56.9417 3.96122 56.8686 3.6542 56.8686H1.95224ZM3.47399 55.7715C3.75431 55.7715 3.98124 55.7017 4.15477 55.5621C4.33498 55.4225 4.42508 55.2297 4.42508 54.9837C4.42508 54.731 4.33498 54.5382 4.15477 54.4052C3.97456 54.2656 3.74096 54.1958 3.45397 54.1958H1.95224V55.7715H3.47399Z" fill="white"/>
<path d="M7.74702 52.8793H9.70928V57.0381C9.70928 57.4902 9.82608 57.8493 10.0597 58.1152C10.2933 58.3812 10.627 58.5141 11.0608 58.5141C11.4947 58.5141 11.8284 58.3812 12.062 58.1152C12.2956 57.8493 12.4124 57.4902 12.4124 57.0381V52.8793H14.3846V57.1279C14.3846 58.0521 14.0876 58.7635 13.4936 59.2621C12.8996 59.7541 12.0887 60.0001 11.0608 60.0001C10.0196 60.0001 9.20536 59.7508 8.61802 59.2521C8.03735 58.7535 7.74702 58.0454 7.74702 57.1279V52.8793Z" fill="white"/>
<path d="M15.5091 59.8605V58.7734L18.893 54.4052H15.6093V52.8793H21.6662V53.9963L18.3124 58.3346H21.9365V59.8605H15.5091Z" fill="white"/>
<path d="M22.8465 59.8605V58.7734L26.2304 54.4052H22.9466V52.8793H29.0035V53.9963L25.6497 58.3346H29.2739V59.8605H22.8465Z" fill="white"/>
<path d="M36.2808 52.8793V54.3952H32.4064V55.7017H35.6701V56.8885H32.4064V58.3346H36.481V59.8605H30.4541V52.8793H36.2808Z" fill="white"/>
<path d="M37.6643 59.8605V52.8793H41.2985C42.2196 52.8793 42.9371 53.0854 43.451 53.4977C43.9649 53.9099 44.2219 54.4784 44.2219 55.2031C44.2219 55.7084 44.0951 56.1405 43.8414 56.4996C43.5945 56.852 43.2508 57.1179 42.8103 57.2974L44.332 59.8605H42.1195L40.878 57.6565H39.6366V59.8605H37.6643ZM41.0382 56.34C41.392 56.34 41.679 56.2569 41.8992 56.0907C42.1261 55.9178 42.2396 55.6718 42.2396 55.3527C42.2396 55.0269 42.1328 54.7809 41.9192 54.6147C41.7057 54.4484 41.4187 54.3653 41.0582 54.3653H39.6366V56.34H41.0382Z" fill="white"/>
<path d="M48.0212 59.8605L51.0146 52.8793H52.2961L55.2795 59.8605H54.1983L53.5175 58.2548H49.7932L49.1124 59.8605H48.0212ZM53.2372 57.5567L51.6453 53.9365L50.0635 57.5567H53.2372Z" fill="white"/>
<path d="M56.4835 59.8605V52.8793H59.9374C60.725 52.8793 61.3557 53.0888 61.8296 53.5076C62.3102 53.9199 62.5504 54.4684 62.5504 55.1532C62.5504 55.838 62.3102 56.3932 61.8296 56.8187C61.3557 57.2376 60.725 57.447 59.9374 57.447H57.5447V59.8605H56.4835ZM57.5447 56.6492H59.8273C60.3279 56.6492 60.7283 56.5129 61.0287 56.2403C61.3357 55.961 61.4892 55.6053 61.4892 55.1731C61.4892 54.7343 61.339 54.3819 61.0387 54.116C60.7383 53.8434 60.3379 53.7071 59.8373 53.7071H57.5447V56.6492Z" fill="white"/>
<path d="M63.933 59.8605V52.8793H67.387C68.1746 52.8793 68.8053 53.0888 69.2792 53.5076C69.7597 53.9199 70 54.4684 70 55.1532C70 55.838 69.7597 56.3932 69.2792 56.8187C68.8053 57.2376 68.1746 57.447 67.387 57.447H64.9942V59.8605H63.933ZM64.9942 56.6492H67.2769C67.7774 56.6492 68.1779 56.5129 68.4782 56.2403C68.7853 55.961 68.9388 55.6053 68.9388 55.1731C68.9388 54.7343 68.7886 54.3819 68.4883 54.116C68.1879 53.8434 67.7875 53.7071 67.2869 53.7071H64.9942V56.6492Z" fill="white"/>
</svg>
