<svg width="24" height="25" viewBox="0 0 24 25" fill="none" xmlns="http://www.w3.org/2000/svg">
<g clip-path="url(#clip0_609_30)">
<path d="M21.379 17.5292C20.633 16.8999 20.0336 16.1151 19.6226 15.2298C19.2117 14.3446 18.9992 13.3802 19 12.4042V9.61621C19 6.09721 16.386 3.18421 13 2.69621V1.61621C13 1.35099 12.8946 1.09664 12.7071 0.909104C12.5196 0.721568 12.2652 0.616211 12 0.616211C11.7348 0.616211 11.4804 0.721568 11.2929 0.909104C11.1053 1.09664 11 1.35099 11 1.61621V2.69621C7.61299 3.18421 4.99999 6.09721 4.99999 9.61621V12.4042C5.00037 13.3822 4.78682 14.3484 4.3743 15.2351C3.96178 16.1218 3.36029 16.9075 2.61199 17.5372C2.34155 17.7703 2.14879 18.0805 2.05953 18.4262C1.97028 18.772 1.98878 19.1367 2.11256 19.4716C2.23634 19.8065 2.4595 20.0956 2.75214 20.3002C3.04478 20.5047 3.39294 20.615 3.74999 20.6162H20.25C21.215 20.6162 22 19.8312 22 18.8662C22 18.3542 21.777 17.8702 21.379 17.5292ZM12 24.6162C12.864 24.615 13.7012 24.316 14.3705 23.7695C15.0397 23.2231 15.5001 22.4625 15.674 21.6162H8.32599C8.4999 22.4625 8.96028 23.2231 9.62953 23.7695C10.2988 24.316 11.136 24.615 12 24.6162Z" fill="white"/>
<ellipse cx="18.5295" cy="5.41621" rx="4.8" ry="4.8" fill="#FF0000"/>
<path d="M16.5811 6.81621V6.43269L18.0214 4.85598C18.1905 4.67132 18.3297 4.51081 18.4391 4.37445C18.5484 4.23666 18.6294 4.1074 18.682 3.98666C18.7359 3.8645 18.7629 3.73666 18.7629 3.60314C18.7629 3.44973 18.726 3.31692 18.6521 3.2047C18.5797 3.09249 18.4802 3.00584 18.3538 2.94476C18.2274 2.88368 18.0854 2.85314 17.9277 2.85314C17.7601 2.85314 17.6138 2.88794 17.4888 2.95754C17.3652 3.02572 17.2693 3.12161 17.2011 3.24518C17.1344 3.36876 17.101 3.51365 17.101 3.67984H16.5981C16.5981 3.42416 16.6571 3.19973 16.775 3.00655C16.8929 2.81337 17.0534 2.6628 17.2565 2.55484C17.4611 2.44689 17.6905 2.39291 17.9447 2.39291C18.2004 2.39291 18.427 2.44689 18.6244 2.55484C18.8219 2.6628 18.9767 2.8084 19.0889 2.99163C19.2011 3.17487 19.2572 3.37871 19.2572 3.60314C19.2572 3.76365 19.2281 3.92061 19.1699 4.07402C19.1131 4.22601 19.0136 4.39575 18.8716 4.58325C18.731 4.76933 18.5356 4.99661 18.2856 5.26507L17.3055 6.31337V6.34746H19.3339V6.81621H16.5811Z" fill="white"/>
</g>
<defs>
<clipPath id="clip0_609_30">
<rect width="24" height="24" fill="white" transform="translate(0 0.616211)"/>
</clipPath>
</defs>
</svg>
