<svg width="20" height="25" viewBox="0 0 20 25" fill="none" xmlns="http://www.w3.org/2000/svg">
<path d="M19.379 17.5292C18.633 16.8999 18.0336 16.1151 17.6226 15.2298C17.2117 14.3446 16.9992 13.3802 17 12.4042V9.61621C17 6.09721 14.386 3.18421 11 2.69621V1.61621C11 1.35099 10.8946 1.09664 10.7071 0.909104C10.5196 0.721568 10.2652 0.616211 9.99999 0.616211C9.73477 0.616211 9.48042 0.721568 9.29288 0.909104C9.10535 1.09664 8.99999 1.35099 8.99999 1.61621V2.69621C5.61299 3.18421 2.99999 6.09721 2.99999 9.61621V12.4042C3.00037 13.3822 2.78682 14.3484 2.3743 15.2351C1.96178 16.1218 1.36029 16.9075 0.611989 17.5372C0.341548 17.7703 0.148792 18.0805 0.0595338 18.4262C-0.0297245 18.772 -0.0112235 19.1367 0.112559 19.4716C0.236342 19.8065 0.459496 20.0956 0.752138 20.3002C1.04478 20.5047 1.39294 20.615 1.74999 20.6162H18.25C19.215 20.6162 20 19.8312 20 18.8662C20 18.3542 19.777 17.8702 19.379 17.5292ZM9.99999 24.6162C10.864 24.615 11.7012 24.316 12.3705 23.7695C13.0397 23.2231 13.5001 22.4625 13.674 21.6162H6.32599C6.4999 22.4625 6.96028 23.2231 7.62953 23.7695C8.29878 24.316 9.13597 24.615 9.99999 24.6162Z" fill="white"/>
</svg>
