<svg width="20" height="22" viewBox="0 0 20 22" fill="none" xmlns="http://www.w3.org/2000/svg">
<path d="M19.4755 16.1458L16.6786 13.0756C15.6797 11.9791 13.9816 12.4178 13.582 13.8431C13.2823 14.83 12.2834 15.3783 11.3844 15.1589C9.38661 14.6107 6.68957 11.7598 6.19012 9.4572C5.89045 8.47031 6.48979 7.37383 7.3888 7.04493C8.68738 6.60633 9.08694 4.7423 8.08804 3.64582L5.2911 0.575655C4.49198 -0.191885 3.29329 -0.191885 2.59406 0.575655L0.696143 2.65898C-1.20177 4.85195 0.895924 10.6633 5.59077 15.8168C10.2856 20.9703 15.5798 23.3826 17.5776 21.1896L19.4755 19.1063C20.1748 18.2291 20.1748 16.9133 19.4755 16.1458Z" fill="#F5F5F5"/>
</svg>
