<svg width="25" height="24" viewBox="0 0 25 24" fill="none" xmlns="http://www.w3.org/2000/svg">
<path d="M24.1508 9.08075C24.0105 8.6238 23.6186 8.30504 23.1594 8.27109L15.9317 7.75963L13.2322 0.734499C13.0594 0.289677 12.6489 0 12.1897 0C11.734 0 11.32 0.2921 11.1507 0.734499L8.45124 7.75963L1.22352 8.27109C0.76779 8.30624 0.375858 8.6238 0.232093 9.08075C0.0917838 9.53525 0.228615 10.0334 0.578815 10.3389L6.14121 15.1932L4.37171 22.5383C4.25923 23.0025 4.42969 23.4909 4.80075 23.7746C5.17181 24.0545 5.66696 24.0727 6.05658 23.8194L12.1931 19.7907L18.3296 23.8194C18.5116 23.9406 18.7192 24 18.9256 24C19.1598 24 19.3871 23.9273 19.5854 23.7782C19.9565 23.4958 20.1269 23.0097 20.0144 22.5419L18.2484 15.1969L23.8075 10.3425C24.1566 10.0346 24.2935 9.53525 24.1508 9.08075Z" fill="#FFBB15"/>
</svg>
