<svg width="40" height="40" viewBox="0 0 40 40" fill="none" xmlns="http://www.w3.org/2000/svg">
<g clip-path="url(#clip0_609_36)">
<path d="M20.0155 20.8084C23.5347 20.8084 26.4197 17.9552 26.4197 14.4042C26.4197 10.8534 23.5665 7.99998 20.0155 7.99998C16.4647 7.99998 13.6113 10.8532 13.6113 14.4042C13.6113 17.9552 16.4964 20.8084 20.0155 20.8084Z" fill="white"/>
<path d="M24.7393 21.1253H24.6126H24.5491H24.4541H24.3906C24.359 21.1253 24.3271 21.157 24.2955 21.157H24.2639C24.2004 21.1886 24.1688 21.2204 24.1053 21.2521C22.9005 22.1081 21.5055 22.552 20.0156 22.552C18.5255 22.552 17.1305 22.1081 15.9259 21.2521C15.8943 21.2204 15.8308 21.1886 15.7673 21.157H15.7357C15.7041 21.157 15.6722 21.1253 15.609 21.1253H15.5455H15.4504H15.3869H15.2918H15.2602C10.9801 22.1081 8 25.8493 8 30.2561V31.2073C8 31.6511 8.34876 31.9999 8.7926 31.9999H31.2073C31.6512 31.9999 31.9999 31.6511 31.9999 31.2073V30.2561C31.9993 25.8809 29.0191 22.1082 24.7392 21.1253H24.7393Z" fill="white"/>
</g>
<defs>
<clipPath id="clip0_609_36">
<rect width="24" height="24" fill="white" transform="translate(8 8)"/>
</clipPath>
</defs>
</svg>
